<svg xmlns="http://www.w3.org/2000/svg" width="260" height="52" viewBox="0 0 260 52" fill="none" aria-labelledby="agdLogoWTitle" role="img">
  <title id="agdLogoWTitle">Amity Gentle Dental</title>
  <!-- White lockup on transparent — designed for brand blue header/footer -->
  <g transform="translate(1, 2)">
    <!-- Molar outline: crown + subtle groove -->
    <path
      fill="none"
      stroke="#ffffff"
      stroke-width="2"
      stroke-linecap="round"
      stroke-linejoin="round"
      d="M24 5 C15 5 9 11 9 21 C9 29 12 37 18 40 C20 41 22 39 23 36 C24 39 26 41 29 40 C35 37 39 29 39 21 C39 11 33 5 24 5 Z"
    />
    <path
      fill="none"
      stroke="#ffffff"
      stroke-width="1.5"
      stroke-linecap="round"
      stroke-opacity="0.8"
      d="M15 19 C18 16 21 15 24 15 C27 15 30 16 33 19"
    />
  </g>
  <text
    xml:space="preserve"
    text-rendering="geometricPrecision"
    fill="#ffffff"
    font-family="system-ui, -apple-system, 'Segoe UI', sans-serif"
    font-size="21"
    font-weight="700"
    letter-spacing="-0.02em"
    x="52"
    y="28"
  >
    Amity
  </text>
  <text
    text-rendering="geometricPrecision"
    fill="#ffffff"
    font-family="system-ui, -apple-system, 'Segoe UI', sans-serif"
    font-size="12.5"
    font-weight="500"
    letter-spacing="0.02em"
    x="52"
    y="44"
    opacity="0.95"
  >
    Gentle Dental
  </text>
</svg>
