<svg xmlns="http://www.w3.org/2000/svg" viewBox="0 0 32 32" fill="none" aria-hidden="true">
  <rect width="32" height="32" rx="6" fill="#415a94"/>
  <path
    fill="none"
    stroke="#ffffff"
    stroke-width="2.25"
    stroke-linecap="round"
    stroke-linejoin="round"
    transform="translate(8, 5) scale(0.58)"
    d="M24 4.5c-6.5 0-12 4-14.5 10.5-.8 2.2-1.2 4.8-1.2 7.5 0 5.2 1.8 9.8 5 13.2 1.2 1.3 2.8 1.8 4.2 1.1 1.1-.5 1.8-1.6 2.1-2.8.4-1.2.9-2.4 1.8-3.2.9.8 1.4 2 1.8 3.2.3 1.2 1 2.3 2.1 2.8 1.4.7 3 .2 4.2-1.1 3.2-3.4 5-8 5-13.2 0-2.7-.4-5.3-1.2-7.5-2.5-6.5-8-10.5-14.5-10.5z"
  />
</svg>
